<?xml version="1.0" encoding="UTF-8" standalone="no" ?>
<!DOCTYPE svg PUBLIC "-//W3C//DTD SVG 1.1//EN" "http://www.w3.org/Graphics/SVG/1.1/DTD/svg11.dtd">
<svg xmlns="http://www.w3.org/2000/svg" xmlns:xlink="http://www.w3.org/1999/xlink" version="1.1" width="640" height="480" viewBox="0 0 640 480" xml:space="preserve">
<desc>Created with Fabric.js 3.6.6</desc>
<defs>
</defs>
<g transform="matrix(1.34 0 0 1.34 190.18 190.6)"  >
<g style=""   >
		<g transform="matrix(0.01 0 0 -0.01 -48.01 -29.26)"  >
<path style="stroke: none; stroke-width: 1; stroke-dasharray: none; stroke-linecap: butt; stroke-dashoffset: 0; stroke-linejoin: miter; stroke-miterlimit: 4; fill: rgb(201,23,23); fill-rule: nonzero; opacity: 1;"  transform=" translate(-5763.11, -13999.12)" d="m 9386 22183 c -10 -3 -77 -95 -150 -206 c -542 -825 -6474 -10103 -7136 -11161 c -128 -206 -129 -184 22 -516 c 186 -411 514 -1118 838 -1810 l 302 -645 l -5 -80 c -6 -102 -34 -186 -396 -1179 c -154 -423 -279 -772 -276 -774 c 2 -2 44 20 92 51 c 174 109 391 212 585 276 c 36 12 71 27 76 34 c 5 7 303 755 662 1662 c 812 2054 2115 5346 2507 6335 c 163 410 300 750 305 755 c 32 32 -41 -200 -542 -1709 c -502 -1517 -635 -1927 -628 -1945 c 2 -4 176 138 388 316 c 844 712 2346 1979 2367 1998 c 15 13 27 39 33 74 c 41 221 281 2051 769 5856 c 287 2238 321 2507 321 2561 c 0 42 -5 55 -28 77 c -28 27 -72 40 -106 30 z" stroke-linecap="round" />
</g>
		<g transform="matrix(0.01 0 0 -0.01 -15.11 4.32)"  >
<path style="stroke: none; stroke-width: 1; stroke-dasharray: none; stroke-linecap: butt; stroke-dashoffset: 0; stroke-linejoin: miter; stroke-miterlimit: 4; fill: rgb(201,23,23); fill-rule: nonzero; opacity: 1;"  transform=" translate(-9032.68, -10849.98)" d="m 16130 19718 c -249 -188 -1929 -1598 -7085 -5947 c -1900 -1603 -3130 -2642 -3248 -2745 c -80 -69 -87 -86 -87 -204 c 0 -119 17 -259 165 -1352 c 112 -826 187 -1403 201 -1527 c 10 -99 -6 -143 -103 -278 c -290 -404 -1202 -1599 -1298 -1701 c -38 -40 -43 -40 -195 -14 c -490 86 -999 15 -1435 -200 c -684 -337 -1144 -968 -1262 -1730 c -21 -140 -24 -489 -5 -625 c 37 -257 108 -488 222 -720 c 88 -180 176 -316 298 -463 c 108 -131 276 -292 280 -270 c 2 9 -8 85 -23 169 c -59 354 -37 798 57 1124 l 32 110 l 1 280 c 1 305 5 334 62 505 c 57 171 142 333 231 439 l 29 34 l 74 -28 c 41 -16 119 -50 173 -77 c 55 -26 109 -48 120 -48 c 12 0 56 28 98 63 c 175 146 326 244 560 363 c 71 36 132 73 135 82 c 3 9 18 45 34 80 c 27 60 29 62 64 62 c 20 0 90 -10 155 -22 l 118 -21 l 124 21 c 182 32 389 45 571 38 c 284 -12 418 -36 706 -126 c 187 -59 195 -60 212 -43 c 9 10 234 304 499 653 c 546 718 764 1000 826 1069 c 57 63 130 95 279 121 c 66 12 123 25 127 28 c 8 8 51 395 127 1127 c 60 575 66 635 58 635 c -9 0 -303 -407 -1747 -2420 c -309 -432 -569 -793 -577 -802 c -20 -22 -23 -20 -164 92 c -63 50 -162 123 -221 163 c -59 40 -107 75 -108 79 c 0 13 5393 6706 6243 7748 c 111 135 137 164 142 158 c 8 -8 -397 -577 -2338 -3285 c -202 -281 -370 -519 -373 -528 c -6 -14 -3 -14 22 -4 c 109 46 791 383 2157 1063 c 1519 758 1578 788 1596 824 c 36 71 2465 5381 3061 6692 c 503 1105 580 1280 580 1312 c 0 39 -48 88 -87 88 c -17 0 -49 -16 -83 -42 z" stroke-linecap="round" />
</g>
		<g transform="matrix(0.01 0 0 -0.01 13.84 35.98)"  >
<path style="stroke: none; stroke-width: 1; stroke-dasharray: none; stroke-linecap: butt; stroke-dashoffset: 0; stroke-linejoin: miter; stroke-miterlimit: 4; fill: rgb(201,23,23); fill-rule: nonzero; opacity: 1;"  transform=" translate(-11783.47, -7774.42)" d="M 20390 15166 C 19226 14604 9652 9842 8690 9346 C 8439 9217 8401 9190 8381 9126 C 8369 9090 8319 8638 8220 7685 C 8080 6331 8060 6172 8019 6085 c -18 -37 -55 -74 -193 -189 c -184 -153 -708 -580 -1274 -1039 l -353 -285 l -118 53 c -328 149 -635 216 -993 216 c -271 -1 -482 -33 -723 -112 c -237 -78 -552 -254 -753 -422 c -438 -366 -719 -886 -803 -1487 c -16 -110 -16 -440 0 -550 c 72 -515 286 -964 628 -1321 c 353 -368 876 -627 1368 -679 c 156 -17 503 -14 631 5 c 498 74 964 316 1316 684 c 267 279 442 584 554 966 c 63 217 68 263 68 635 c 0 331 0 337 -27 455 c -44 190 -44 185 -15 209 c 14 12 157 132 319 267 c 429 358 1193 977 1401 1136 c 94 72 137 80 326 64 c 199 -17 806 -76 1577 -155 c 800 -82 1155 -116 1222 -116 c 77 0 121 23 177 92 c 568 703 8089 10218 8364 10582 c 62 83 67 117 23 165 c -22 23 -38 31 -63 31 c -21 -1 -122 -44 -288 -124 z M 14710 10347 C 14610 10254 12129 8115 9300 5684 C 7294 3960 7069 3769 7056 3773 c -6 2 -54 60 -106 129 c -52 69 -132 168 -177 219 c -45 52 -83 97 -85 100 c -3 7 73 66 782 609 c 190 145 651 499 1025 785 c 2950 2261 4527 3468 5380 4120 c 418 319 785 599 815 622 c 76 58 86 53 20 -10 z M 5375 3945 c 39 -9 77 -22 85 -30 c 19 -20 27 -302 11 -417 c -56 -390 -272 -749 -583 -968 c -75 -53 -148 -95 -148 -85 c 0 3 16 61 36 128 c 111 382 118 846 19 1238 c -14 54 -25 104 -25 113 c 0 14 39 25 135 40 c 68 10 402 -3 470 -19 z M 3987 3393 c 4 -16 8 -89 7 -163 c 0 -224 -54 -443 -159 -655 c -53 -108 -118 -205 -142 -212 c -20 -7 -26 61 -20 231 c 10 290 75 491 239 749 c 28 42 54 77 59 77 c 5 0 12 -12 16 -27 z m 2373 -194 c 36 -69 89 -208 116 -303 c 24 -82 27 -112 31 -306 c 4 -173 2 -232 -11 -303 c -95 -505 -487 -944 -982 -1100 c -165 -52 -227 -60 -462 -55 c -244 6 -286 14 -505 103 c -115 46 -292 145 -279 156 c 4 4 45 12 92 18 c 248 35 492 109 706 215 c 648 322 1074 867 1248 1599 c 8 34 20 28 46 -24 z" stroke-linecap="round" />
</g>
		<g transform="matrix(0.01 0 0 -0.01 -57.16 28.74)"  >
<path style="stroke: none; stroke-width: 1; stroke-dasharray: none; stroke-linecap: butt; stroke-dashoffset: 0; stroke-linejoin: miter; stroke-miterlimit: 4; fill: rgb(201,23,23); fill-rule: nonzero; opacity: 1;"  transform=" translate(-4889.42, -8443.26)" d="M 5065 9583 C 4417 7630 3980 6305 3980 6289 c 0 -13 21 -17 143 -22 c 78 -4 198 -14 267 -22 c 69 -9 135 -13 147 -11 c 48 13 82 86 263 569 c 60 160 120 303 135 323 c 51 66 159 130 441 258 l 81 37 l 150 202 c 202 271 197 262 189 347 c -9 97 -185 1409 -347 2590 c -7 47 -15 89 -19 93 c -4 4 -168 -477 -365 -1070 z" stroke-linecap="round" />
</g>
		<g transform="matrix(0.01 0 0 -0.01 -89.89 80.15)"  >
<path style="stroke: none; stroke-width: 1; stroke-dasharray: none; stroke-linecap: butt; stroke-dashoffset: 0; stroke-linejoin: miter; stroke-miterlimit: 4; fill: rgb(201,23,23); fill-rule: nonzero; opacity: 1;"  transform=" translate(-1652.74, -3220.68)" d="M 2155 5493 C 1735 5396 1408 5245 1125 5017 C 1016 4929 820 4725 734 4610 C 211 3910 125 2994 509 2215 c 233 -471 569 -809 1031 -1039 c 249 -123 515 -205 737 -227 c 157 -15 615 -6 696 14 c 32 8 59 16 61 18 c 2 2 -33 61 -78 130 c -45 70 -107 173 -138 231 c -65 118 -76 129 -213 224 c -55 37 -140 102 -190 144 c -139 116 -143 119 -224 144 c -244 75 -476 213 -638 378 c -150 154 -290 394 -353 608 c -65 218 -65 563 -1 780 c 42 139 144 342 232 460 c 92 124 100 141 148 307 c 110 382 278 685 563 1021 c 81 95 82 101 13 85 z" stroke-linecap="round" />
</g>
</g>
</g>
</svg>